<svg xmlns="http://www.w3.org/2000/svg" width="489.125" height="189.063" viewBox="0 0 489.125 189.063">
  <defs>
    <style>
      .cls-1, .cls-2 {
        fill: #fff;
      }

      .cls-2 {
        fill-rule: evenodd;
      }
    </style>
  </defs>
  <circle id="Ellipse_2_copy" data-name="Ellipse 2 copy" class="cls-1" cx="483.89" cy="183.829" r="5.234"/>
  <path id="Ellipse_2_copy_2" data-name="Ellipse 2 copy 2" class="cls-2" d="M391.477,430.632a5.225,5.225,0,1,1-5.225,5.225A5.225,5.225,0,0,1,391.477,430.632Zm-92.418,0a5.225,5.225,0,1,1-5.225,5.225A5.225,5.225,0,0,1,299.059,430.632Zm-92.417,0a5.225,5.225,0,1,1-5.225,5.225A5.225,5.225,0,0,1,206.642,430.632Zm-92.418,0A5.225,5.225,0,1,1,109,435.857,5.225,5.225,0,0,1,114.224,430.632Zm-92.417,0a5.225,5.225,0,1,1-5.225,5.225A5.225,5.225,0,0,1,21.807,430.632Z" transform="translate(0 -252.031)"/>
  <path id="Ellipse_2_copy_3" data-name="Ellipse 2 copy 3" class="cls-2" d="M437.345,385.982a5.225,5.225,0,1,1-5.226,5.225A5.225,5.225,0,0,1,437.345,385.982Z" transform="translate(0 -252.031)"/>
  <path id="Ellipse_2_copy_3-2" data-name="Ellipse 2 copy 3" class="cls-2" d="M344.927,385.982a5.225,5.225,0,1,1-5.225,5.225A5.225,5.225,0,0,1,344.927,385.982Zm-92.418,0a5.225,5.225,0,1,1-5.225,5.225A5.225,5.225,0,0,1,252.509,385.982Zm-92.417,0a5.225,5.225,0,1,1-5.225,5.225A5.225,5.225,0,0,1,160.092,385.982Zm-92.418,0a5.225,5.225,0,1,1-5.225,5.225A5.225,5.225,0,0,1,67.674,385.982Zm-92.418,0a5.225,5.225,0,0,1,5.225,5.225,5.225,5.225,0,0,1-5.225,5.225,5.225,5.225,0,0,1-5.225-5.225A5.225,5.225,0,0,1-24.744,385.982Z" transform="translate(0 -252.031)"/>
  <path id="Ellipse_2_copy_4" data-name="Ellipse 2 copy 4" class="cls-2" d="M483.9,341.332a5.225,5.225,0,1,1-5.225,5.225A5.225,5.225,0,0,1,483.9,341.332Z" transform="translate(0 -252.031)"/>
  <path id="Ellipse_2_copy_4-2" data-name="Ellipse 2 copy 4" class="cls-2" d="M391.477,341.332a5.225,5.225,0,1,1-5.225,5.225A5.225,5.225,0,0,1,391.477,341.332Zm-92.418,0a5.225,5.225,0,1,1-5.225,5.225A5.225,5.225,0,0,1,299.059,341.332Zm-92.417,0a5.225,5.225,0,1,1-5.225,5.225A5.225,5.225,0,0,1,206.642,341.332Zm-92.418,0A5.225,5.225,0,1,1,109,346.557,5.225,5.225,0,0,1,114.224,341.332Zm-92.417,0a5.225,5.225,0,1,1-5.225,5.225A5.225,5.225,0,0,1,21.807,341.332Z" transform="translate(0 -252.031)"/>
  <path id="Ellipse_2_copy_4-3" data-name="Ellipse 2 copy 4" class="cls-2" d="M437.345,296.681a5.226,5.226,0,1,1-5.226,5.225A5.226,5.226,0,0,1,437.345,296.681Z" transform="translate(0 -252.031)"/>
  <path id="Ellipse_2_copy_4-4" data-name="Ellipse 2 copy 4" class="cls-2" d="M344.927,296.681a5.226,5.226,0,1,1-5.225,5.225A5.225,5.225,0,0,1,344.927,296.681Zm-92.418,0a5.226,5.226,0,1,1-5.225,5.225A5.225,5.225,0,0,1,252.509,296.681Zm-92.417,0a5.226,5.226,0,1,1-5.225,5.225A5.226,5.226,0,0,1,160.092,296.681Zm-92.418,0a5.226,5.226,0,1,1-5.225,5.225A5.225,5.225,0,0,1,67.674,296.681Zm-92.418,0a5.225,5.225,0,0,1,5.225,5.225,5.226,5.226,0,0,1-5.225,5.226,5.226,5.226,0,0,1-5.225-5.226A5.226,5.226,0,0,1-24.744,296.681Z" transform="translate(0 -252.031)"/>
  <path id="Ellipse_2_copy_5" data-name="Ellipse 2 copy 5" class="cls-2" d="M483.9,252.031a5.225,5.225,0,1,1-5.225,5.225A5.226,5.226,0,0,1,483.9,252.031Z" transform="translate(0 -252.031)"/>
  <path id="Ellipse_2_copy_5-2" data-name="Ellipse 2 copy 5" class="cls-2" d="M391.477,252.031a5.225,5.225,0,1,1-5.225,5.225A5.225,5.225,0,0,1,391.477,252.031Zm-92.418,0a5.225,5.225,0,1,1-5.225,5.225A5.225,5.225,0,0,1,299.059,252.031Zm-92.417,0a5.225,5.225,0,1,1-5.225,5.225A5.226,5.226,0,0,1,206.642,252.031Zm-92.418,0A5.225,5.225,0,1,1,109,257.256,5.225,5.225,0,0,1,114.224,252.031Zm-92.417,0a5.225,5.225,0,1,1-5.225,5.225A5.225,5.225,0,0,1,21.807,252.031Z" transform="translate(0 -252.031)"/>
</svg>
