<svg xmlns="http://www.w3.org/2000/svg" xmlns:xlink="http://www.w3.org/1999/xlink" width="232.156" height="232.188" viewBox="0 0 232.156 232.188">
  <defs>
    <style>
      .cls-1, .cls-2, .cls-3 {
        fill-rule: evenodd;
      }

      .cls-1 {
        fill: url(#linear-gradient);
      }

      .cls-2 {
        fill: #fafafa;
      }

      .cls-3, .cls-4 {
        fill: #fff;
      }
    </style>
    <linearGradient id="linear-gradient" x1="866.078" y1="600.469" x2="866.078" y2="368.281" gradientUnits="userSpaceOnUse">
      <stop offset="0" stop-color="#ffb400"/>
      <stop offset="1" stop-color="#00d8aa"/>
    </linearGradient>
  </defs>
  <path id="Rectangle_1_copy_2" data-name="Rectangle 1 copy 2" class="cls-1" d="M749.985,368.293H982.144V600.478H749.985V368.293Z" transform="translate(-750 -368.281)"/>
  <path id="Code" class="cls-2" d="M812.564,407.619c-0.825-6.509-5.867-10.451-13.247-10.451-9.075,0-14.759,6.142-14.759,15.951,0,9.764,5.775,16,14.805,16,7.563,0,12.743-4.308,13.568-11.23h-7.288c-0.825,3.667-2.934,5.409-6.463,5.409-4.859,0-7.747-3.8-7.747-10.176,0-6.417,2.888-10.13,7.93-10.13,3.254,0,5.5,1.7,6.188,4.63h7.013Zm15.4-1.925c-6.875,0-11.734,4.813-11.734,11.642,0,6.876,4.859,11.689,11.734,11.689,6.83,0,11.78-4.813,11.78-11.5C839.742,410.461,834.975,405.694,827.962,405.694Zm0,5.179c3.392,0,5.226,2.338,5.226,6.6,0,4.034-1.925,6.371-5.18,6.371-3.346,0-5.225-2.337-5.225-6.509C822.783,413.211,824.662,410.873,827.962,410.873Zm37.355-13.017h-6.509V407.94a7.205,7.205,0,0,0-5.638-2.292c-5.958,0-9.9,4.675-9.9,11.734,0,7.013,3.9,11.643,9.717,11.643a6.847,6.847,0,0,0,6.1-2.98v2.384h6.234V397.856Zm-10.955,13.063c2.842,0,4.676,2.567,4.676,6.509,0,3.759-1.88,6.326-4.676,6.326-2.842,0-4.675-2.521-4.675-6.418S851.52,410.919,854.362,410.919Zm37.859,8.343a17.956,17.956,0,0,0-1.1-7.059,10,10,0,0,0-9.855-6.509c-6.692,0-11.322,4.767-11.322,11.688,0,6.967,4.538,11.643,11.368,11.643,5.271,0,9.4-2.75,10.634-7.059h-6.6a4.149,4.149,0,0,1-3.85,1.971c-2.8,0-4.584-1.65-5-4.675h15.722Zm-15.676-4.584c0.5-2.613,2.154-4.034,4.675-4.034s4.034,1.421,4.309,4.034h-8.984Z" transform="translate(-750 -368.281)"/>
  <path class="cls-3" d="M785.723,454.305H945.114v6.028H785.723v-6.028Z" transform="translate(-750 -368.281)"/>
  <rect id="Rectangle_3_copy" data-name="Rectangle 3 copy" class="cls-4" x="35.719" y="105.032" width="88.062" height="6.031"/>
</svg>
