<svg id="Gradient_ellipse_design" data-name="Gradient ellipse design" xmlns="http://www.w3.org/2000/svg" xmlns:xlink="http://www.w3.org/1999/xlink" width="299.777" height="299.75" viewBox="0 0 299.777 299.75">
  <defs>
    <style>
      .cls-1 {
        fill: url(#linear-gradient);
      }

      .cls-2 {
        fill: #fafafa;
        fill-rule: evenodd;
      }
    </style>
    <linearGradient id="linear-gradient" x1="299.763" y1="299.75" x2="0.013" gradientUnits="userSpaceOnUse">
      <stop offset="0" stop-color="#9c00ff"/>
      <stop offset="1" stop-color="#00d8aa"/>
    </linearGradient>
  </defs>
  <circle class="cls-1" cx="149.888" cy="149.875" r="149.888"/>
  <path id="Design" class="cls-2" d="M975.423,618.312h10.589c5.684,0,9.075-1.192,11.734-4.034a16.987,16.987,0,0,0,3.984-11.413,16.34,16.34,0,0,0-3.755-10.909c-2.75-3.117-6-4.217-12.192-4.217h-10.36v30.573Zm6.876-5.867V593.606h5.088c2.8,0,4.675.963,5.867,3.071A12.2,12.2,0,0,1,994.721,603a12.372,12.372,0,0,1-1.513,6.463c-1.283,2.108-3.163,2.979-6.279,2.979H982.3Zm45.561-3.3a17.941,17.941,0,0,0-1.1-7.059,10,10,0,0,0-9.86-6.509c-6.69,0-11.32,4.767-11.32,11.688,0,6.968,4.54,11.643,11.37,11.643,5.27,0,9.4-2.75,10.63-7.059h-6.6a4.15,4.15,0,0,1-3.85,1.971c-2.79,0-4.58-1.65-4.99-4.675h15.72Zm-15.68-4.584c0.51-2.613,2.16-4.034,4.68-4.034s4.03,1.421,4.31,4.034h-8.99Zm38.59-1.742c-0.59-4.675-4.03-7.242-9.71-7.242-5.92,0-9.45,2.7-9.45,7.151,0,3.529,1.88,5.317,6.74,6.371l4.04,0.917c1.74,0.412,2.47.962,2.47,2.016,0,1.33-1.33,2.155-3.39,2.155-2.61,0-3.99-.963-4.36-3.071h-6.09c0.36,4.9,4.17,7.792,10.31,7.792s9.95-2.934,9.95-7.609a6.187,6.187,0,0,0-1.65-4.446c-0.96-1.009-2.34-1.6-5.04-2.155l-4.08-.87c-2.07-.459-2.71-0.871-2.71-1.7,0-1.1,1.24-1.834,3.12-1.834,2.15,0,3.48.871,3.76,2.521h6.09Zm11.42-6.646h-6.51v22.139h6.51V596.173Zm0-8.434h-6.51V593.1h6.51v-5.363Zm20.76,8.571,0.14,2.705a7.116,7.116,0,0,0-6.47-3.438c-5.59,0-9.81,4.629-9.81,10.863s4.17,10.68,10,10.68a7.765,7.765,0,0,0,5.95-2.383V616.2c0,2.246-.27,3.071-1.23,3.85a5,5,0,0,1-3.07.871c-2.16,0-3.44-.688-3.9-2.063h-6.74c0.46,4.538,4.17,7.059,10.36,7.059,3.81,0,6.83-1.008,8.85-2.979,1.56-1.513,2.06-3.117,2.06-6.738V596.31h-6.14Zm-5.04,4.538c2.93,0,4.9,2.155,4.9,5.409,0,3.438-1.88,5.592-4.9,5.592-2.94,0-4.91-2.246-4.91-5.5C1073,603.048,1074.97,600.848,1077.91,600.848Zm16.91-4.675v22.139h6.51V605.89c0-1.925.23-2.842,0.96-3.667a3.66,3.66,0,0,1,2.79-1.191,3.079,3.079,0,0,1,2.66,1.283c0.55,0.825.69,1.7,0.69,3.942v12.055h6.51V603.965c0-5.225-2.93-8.434-7.75-8.434-2.29,0-3.66.6-6.05,2.8v-2.154h-6.32Z" transform="translate(-895.563 -455.75)"/>
</svg>
