<svg id="Logo" xmlns="http://www.w3.org/2000/svg" width="294.906" height="110.032" viewBox="0 0 294.906 110.032">
  <defs>
    <style>
      .cls-1 {
        fill: #fff;
        fill-rule: evenodd;
      }
    </style>
  </defs>
  <path id="Tim_Pensart" data-name="Tim Pensart" class="cls-1" d="M189.039,139.211l8.223-.065-0.041-5.211-22.551.179,0.041,5.21,8.223-.065,0.173,21.941,6.106-.049Zm17.033,2.145-5.78.046,0.155,19.661,5.78-.046Zm-0.059-7.49-5.781.045,0.038,4.763,5.78-.046Zm5.147,7.45,0.156,19.661,5.78-.046L217.01,150.1c-0.024-3.012.9-4.363,2.9-4.379,2.035-.016,2.941,1.32,2.965,4.333l0.086,10.827,5.78-.045-0.086-10.828c-0.024-3.012.861-4.363,2.9-4.379,1.994-.016,2.9,1.321,2.924,4.333l0.086,10.828,5.78-.046-0.1-13.067c-0.02-2.524-.48-4.107-1.589-5.279a6.633,6.633,0,0,0-4.9-1.794c-2.524.021-3.983,0.805-6.081,3.224a5.666,5.666,0,0,0-5.48-3.132c-2.361.019-3.577,0.679-5.391,2.933l-0.018-2.361Zm52.878,10,5.739-.046c3.135-.025,5.205-0.815,6.819-2.537a8.844,8.844,0,0,0,2.271-6.287,9.25,9.25,0,0,0-2.987-7.06c-1.763-1.533-3.721-2.047-7.425-2.017l-10.665.084,0.215,27.151,6.106-.048ZM264,146.108l-0.06-7.49,4.8-.038c2.4-.019,3.878,1.354,3.9,3.714a3.519,3.519,0,0,1-3.837,3.776Zm36.97,6.017a15.944,15.944,0,0,0-1.027-6.261,8.878,8.878,0,0,0-8.8-5.711c-5.943.047-10.021,4.313-9.973,10.46,0.049,6.187,4.112,10.308,10.177,10.259,4.682-.036,8.326-2.508,9.4-6.343l-5.862.046a3.684,3.684,0,0,1-3.4,1.778c-2.484.019-4.083-1.433-4.47-4.117Zm-13.954-3.96a3.973,3.973,0,0,1,4.124-3.615c2.239-.018,3.592,1.233,3.855,3.552Zm18.015-7.592,0.155,19.661,5.781-.046-0.088-11.031c-0.013-1.71.184-2.526,0.829-3.264a3.264,3.264,0,0,1,2.475-1.078,2.738,2.738,0,0,1,2.37,1.121c0.494,0.729.623,1.5,0.638,3.5l0.085,10.706,5.78-.046-0.1-12.741c-0.037-4.64-2.665-7.469-6.939-7.435-2.035.016-3.252,0.555-5.354,2.526l-0.015-1.914Zm39.124,5.593c-0.562-4.148-3.633-6.4-8.68-6.364-5.251.042-8.367,2.468-8.336,6.417,0.025,3.135,1.707,4.709,6.029,5.611l3.589,0.786c1.549,0.354,2.2.837,2.212,1.773,0.009,1.181-1.165,1.923-3,1.937-2.32.019-3.548-.826-3.889-2.7l-5.414.042c0.36,4.354,3.759,6.891,9.214,6.848s8.813-2.675,8.78-6.827a5.483,5.483,0,0,0-1.5-3.937c-0.862-.889-2.087-1.408-4.493-1.878l-3.629-.745c-1.835-.392-2.408-0.754-2.413-1.487-0.008-.977,1.086-1.637,2.755-1.65,1.913-.015,3.1.749,3.355,2.213Zm9.65,0.208c0.231-1.589,1.365-2.331,3.482-2.348,1.872-.014,3.018.669,3.026,1.768,0.007,0.814-.438,1.143-1.739,1.357l-3.131.554c-5.488.939-7.793,2.87-7.764,6.575s2.939,6.124,7.3,6.089a7.638,7.638,0,0,0,5.6-2.12c0.209,0.731.21,0.853,0.46,1.543l5.9-.047c-0.659-.972-0.742-1.256-0.759-3.373l-0.072-9.037c-0.023-2.89-.564-4.473-2-5.724-1.557-1.331-3.843-2-6.814-1.981-5.536.044-8.327,2.264-8.658,6.785Zm6.732,7.071a4.514,4.514,0,0,1-4.214,2.517c-1.832.014-2.937-.75-2.947-2.053-0.01-1.18.88-1.88,2.953-2.385l2.072-.464a11.381,11.381,0,0,0,2.112-.627Zm10.641-13.4,0.156,19.661,5.78-.045-0.044-5.537c-0.03-3.785.159-5.618,0.719-6.926a4.458,4.458,0,0,1,4.255-2.4,10.27,10.27,0,0,1,1.466.07l-0.043-5.454c-4.193-.008-5.651.9-6.766,4.084l0.135-3.5Zm26.419,0.035-3.541.028L394,133.884l-5.781.046,0.05,6.228-2.768.022,0.032,4.071,2.768-.022,0.071,8.955c0.024,3.053.276,4.109,1.18,5.079,0.862,0.93,2.127,1.286,4.651,1.266l3.541-.028-0.034-4.355-2.077.016c-1.343.011-1.467-.232-1.491-3.326l-0.061-7.653,3.542-.028Z" transform="translate(-102.844 -51.156)"/>
  <path class="cls-1" d="M152.025,97.846c-0.533.716-1.086,1.424-1.63,2.135v2.394q1.405-1.818,2.765-3.654Q152.572,98.308,152.025,97.846ZM150.4,74.051v0.238a174.427,174.427,0,0,0,13.311-23.1c-0.419-.019-0.84-0.027-1.262-0.032a174.511,174.511,0,0,1-13.46,22.894H150.4Zm9.684,27.35q-4.532,6.557-9.684,12.882v2.394q6.088-7.412,11.359-15.15A15.7,15.7,0,0,1,160.079,101.4Zm15.314-23.278a179.493,179.493,0,0,0,8.224-19.515c-0.333-.262-0.67-0.52-1.014-0.77a178.754,178.754,0,0,1-8.059,19.012Q175,77.465,175.393,78.123ZM169.5,72.432a175.27,175.27,0,0,0,7.9-17.732c-0.353-.173-0.713-0.336-1.073-0.5a175.062,175.062,0,0,1-7.987,17.666C168.74,72.043,169.129,72.226,169.5,72.432Zm-7.69-1.889a173.5,173.5,0,0,0,9.009-18.284c-0.38-.1-0.765-0.182-1.149-0.267a173.256,173.256,0,0,1-9.383,18.648C160.792,70.582,161.3,70.551,161.814,70.542Zm31.957,0.868a200.132,200.132,0,0,1-24.938,48.852q1.128-.222,2.23-0.516a200.688,200.688,0,0,0,23.48-46.538Q194.181,72.3,193.771,71.41Zm-52.82,2.64a174.686,174.686,0,0,0,14.695-22.3q-0.762.142-1.512,0.317a175,175,0,0,1-14.862,21.986h1.679Zm43.279,38.932a35.159,35.159,0,0,0,3.583-3.4,203.976,203.976,0,0,0,8.871-18.925A35.02,35.02,0,0,0,197,86.078,203.79,203.79,0,0,1,184.23,112.983ZM188.5,63.26a185.952,185.952,0,0,1-11.323,26.3,15.488,15.488,0,0,1-4.049,7.343,207.863,207.863,0,0,1-16,23.667q0.891,0.127,1.8.208a197.254,197.254,0,0,0,30.514-56.389Q188.975,63.813,188.5,63.26Zm-57.72,10.791a176.719,176.719,0,0,0,14.311-18.492c-0.856.477-1.693,0.984-2.5,1.529A177.247,177.247,0,0,1,129.44,73.572c-0.061.158-.113,0.32-0.171,0.479h1.506Zm15.6,4.018H102.83V97.287h24.3v44.682a19.232,19.232,0,0,0,19.245,19.219h0V78.069Z" transform="translate(-102.844 -51.156)"/>
</svg>
