<svg xmlns="http://www.w3.org/2000/svg" width="94.156" height="110.032" viewBox="0 0 94.156 110.032">
  <defs>
    <style>
      .cls-1 {
        fill: #fff;
        fill-rule: evenodd;
      }
    </style>
  </defs>
  <path class="cls-1" d="M152.025,97.846c-0.533.716-1.086,1.424-1.63,2.135v2.394q1.405-1.818,2.765-3.654Q152.572,98.308,152.025,97.846ZM150.4,74.051v0.238a174.427,174.427,0,0,0,13.311-23.1c-0.419-.019-0.84-0.027-1.262-0.032a174.511,174.511,0,0,1-13.46,22.894H150.4Zm9.684,27.35q-4.532,6.557-9.684,12.882v2.394q6.088-7.412,11.359-15.15A15.7,15.7,0,0,1,160.079,101.4Zm15.314-23.278a179.493,179.493,0,0,0,8.224-19.515c-0.333-.262-0.67-0.52-1.014-0.77a178.754,178.754,0,0,1-8.059,19.012Q175,77.465,175.393,78.123ZM169.5,72.432a175.27,175.27,0,0,0,7.9-17.732c-0.353-.173-0.713-0.336-1.073-0.5a175.062,175.062,0,0,1-7.987,17.666C168.74,72.043,169.129,72.226,169.5,72.432Zm-7.69-1.889a173.5,173.5,0,0,0,9.009-18.284c-0.38-.1-0.765-0.182-1.149-0.267a173.256,173.256,0,0,1-9.383,18.648C160.792,70.582,161.3,70.551,161.814,70.542Zm31.957,0.868a200.132,200.132,0,0,1-24.938,48.852q1.128-.222,2.23-0.516a200.688,200.688,0,0,0,23.48-46.538Q194.181,72.3,193.771,71.41Zm-52.82,2.64a174.686,174.686,0,0,0,14.695-22.3q-0.762.142-1.512,0.317a175,175,0,0,1-14.862,21.986h1.679Zm43.279,38.932a35.159,35.159,0,0,0,3.583-3.4,203.976,203.976,0,0,0,8.871-18.925A35.02,35.02,0,0,0,197,86.078,203.79,203.79,0,0,1,184.23,112.983ZM188.5,63.26a185.952,185.952,0,0,1-11.323,26.3,15.488,15.488,0,0,1-4.049,7.343,207.863,207.863,0,0,1-16,23.667q0.891,0.127,1.8.208a197.254,197.254,0,0,0,30.514-56.389Q188.975,63.813,188.5,63.26Zm-57.72,10.791a176.719,176.719,0,0,0,14.311-18.492c-0.856.477-1.693,0.984-2.5,1.529A177.247,177.247,0,0,1,129.44,73.572c-0.061.158-.113,0.32-0.171,0.479h1.506Zm15.6,4.018H102.83V97.287h24.3v44.682a19.232,19.232,0,0,0,19.245,19.219h0V78.069Z" transform="translate(-102.844 -51.156)"/>
</svg>
