<svg id="my_work_arrows" data-name="my work arrows" xmlns="http://www.w3.org/2000/svg" width="122.032" height="99.906" viewBox="0 0 122.032 99.906">
  <defs>
    <style>
      .cls-1 {
        fill: #fafafa;
      }

      .cls-1, .cls-2 {
        fill-rule: evenodd;
      }

      .cls-2 {
        fill: #fff;
      }
    </style>
  </defs>
  <path id="My_Work" data-name="My  Work" class="cls-1" d="M327.8,882.312l2.654-10.383c0.029-.029.116-0.408,0.291-0.933,0.088-.263.292-1.05,0.613-2.217-0.058.7-.058,1.138-0.058,1.517l-0.03,1.866v10.15h4V862.859H329.17l-2.538,10.12c0,0.058-.146.671-0.292,1.283-0.116.525-.233,0.963-0.291,1.313l-0.321,1.254a5.078,5.078,0,0,1-.117.612c-0.233-1.283-.554-2.887-0.933-4.4L322.2,862.859h-6.154v19.453h4v-10.15l-0.029-1.866c0-.321,0-0.817-0.059-1.517,0.175,0.554.2,0.671,0.35,1.284,0.117,0.408.292,1.02,0.5,1.895l2.683,10.354H327.8Zm19.658-14.087-1.837,6.358c-0.321,1.254-.555,2.217-0.73,3.15l-0.175-.554c-0.32-1.167-.32-1.2-0.729-2.508l-2.07-6.446h-4.434l4.638,11.841a3.911,3.911,0,0,1,.525,1.809c0,1.224-.671,1.779-2.129,1.779h-1.225v3.12h2.42a5.129,5.129,0,0,0,3.15-.7c0.729-.525,1.2-1.341,1.984-3.645l4.9-14.2h-4.287Zm-24.033,49.087,1.837-8.108c0.379-1.692.613-2.946,0.992-5.046,0.117,0.934.525,3.034,0.962,5.046l1.78,8.108h4.083l5.424-19.453h-4.345L332,906.725c-0.5,2.275-.817,3.85-0.992,4.7-0.263-1.721-.467-2.771-0.846-4.7l-1.808-8.866h-4.2l-1.837,8.72c-0.292,1.458-.5,2.625-0.817,4.842-0.5-2.3-.7-3.209-1.079-4.842l-2.1-8.72h-4.346l5.25,19.453h4.2Zm23.1-14.466a7.423,7.423,0,1,0,7.5,7.525A7.136,7.136,0,0,0,346.524,902.846Zm0,3.3c2.158,0,3.325,1.487,3.325,4.2,0,2.567-1.225,4.054-3.3,4.054-2.129,0-3.325-1.487-3.325-4.141C343.228,907.629,344.424,906.142,346.524,906.142Zm10.442-2.917v14.087h4.141v-3.966c0-2.713.146-4.025,0.554-4.959a3.2,3.2,0,0,1,3.063-1.691,7.319,7.319,0,0,1,1.05.058v-3.908c-3-.029-4.054.612-4.871,2.887l0.117-2.508h-4.054Zm19.279,5.367,5.366-5.367h-5.133l-4.317,4.842V897.859H368.02v19.453h4.141v-4.7L373.5,911.3l3.5,6.008h5.075Z" transform="translate(-260.031 -850.625)"/>
  <path id="Polygon_1" data-name="Polygon 1" class="cls-2" d="M269.91,950.535L260.024,930.8H279.8Z" transform="translate(-260.031 -850.625)"/>
  <path id="Polygon_1_copy" data-name="Polygon 1 copy" class="cls-2" d="M269.91,903.034L261.778,886.8h16.263Z" transform="translate(-260.031 -850.625)"/>
  <path id="Polygon_1_copy_2" data-name="Polygon 1 copy 2" class="cls-2" d="M269.909,863.965l-6.688-13.352H276.6Z" transform="translate(-260.031 -850.625)"/>
</svg>
