<svg id="Shapes" xmlns="http://www.w3.org/2000/svg" xmlns:xlink="http://www.w3.org/1999/xlink" width="466.13" height="369.25" viewBox="0 0 466.13 369.25">
  <defs>
    <style>
      .cls-1, .cls-2, .cls-3, .cls-4, .cls-5 {
        fill-rule: evenodd;
      }

      .cls-1 {
        opacity: 0.25;
        fill: url(#linear-gradient);
      }

      .cls-2 {
        opacity: 0.5;
        fill: url(#linear-gradient-2);
      }

      .cls-3 {
        fill: url(#linear-gradient-3);
      }

      .cls-4 {
        fill: #fafafa;
      }

      .cls-5, .cls-6 {
        fill: #fff;
      }

      .cls-7 {
        fill: url(#linear-gradient-4);
      }
    </style>
    <linearGradient id="linear-gradient" x1="806.344" y1="660.188" x2="806.344" y2="428.031" gradientUnits="userSpaceOnUse">
      <stop offset="0" stop-color="#ffb400"/>
      <stop offset="1" stop-color="#00d8aa"/>
    </linearGradient>
    <linearGradient id="linear-gradient-2" x1="836.219" y1="630.344" x2="836.219" y2="398.188" xlink:href="#linear-gradient"/>
    <linearGradient id="linear-gradient-3" x1="866.078" y1="600.469" x2="866.078" y2="368.281" xlink:href="#linear-gradient"/>
    <linearGradient id="linear-gradient-4" x1="466.112" y1="369.25" x2="205.331" y2="108.469" gradientUnits="userSpaceOnUse">
      <stop offset="0" stop-color="#9c00ff"/>
      <stop offset="1" stop-color="#00d8aa"/>
    </linearGradient>
  </defs>
  <path class="cls-1" d="M690.26,428.043H922.446V660.2H690.26V428.043Z" transform="translate(-690.25 -368.281)"/>
  <path id="Rectangle_1_copy" data-name="Rectangle 1 copy" class="cls-2" d="M720.123,398.181H952.308V630.34H720.123V398.181Z" transform="translate(-690.25 -368.281)"/>
  <g>
    <path id="Rectangle_1_copy_2" data-name="Rectangle 1 copy 2" class="cls-3" d="M749.985,368.293H982.144V600.478H749.985V368.293Z" transform="translate(-690.25 -368.281)"/>
    <path id="Code" class="cls-4" d="M812.564,407.619c-0.825-6.509-5.867-10.451-13.247-10.451-9.076,0-14.759,6.142-14.759,15.951,0,9.763,5.775,16,14.805,16,7.563,0,12.743-4.308,13.568-11.23h-7.288c-0.825,3.667-2.934,5.409-6.463,5.409-4.859,0-7.747-3.805-7.747-10.176,0-6.417,2.888-10.13,7.93-10.13,3.254,0,5.5,1.7,6.188,4.63h7.013Zm15.4-1.925c-6.875,0-11.734,4.813-11.734,11.642,0,6.876,4.859,11.689,11.734,11.689,6.83,0,11.78-4.813,11.78-11.506C839.742,410.461,834.975,405.694,827.962,405.694Zm0,5.179c3.392,0,5.226,2.338,5.226,6.6,0,4.033-1.925,6.371-5.18,6.371-3.346,0-5.225-2.338-5.225-6.509C822.783,413.211,824.662,410.873,827.962,410.873Zm37.355-13.017h-6.509V407.94a7.205,7.205,0,0,0-5.638-2.292c-5.958,0-9.9,4.675-9.9,11.734,0,7.013,3.9,11.643,9.717,11.643a6.847,6.847,0,0,0,6.1-2.98v2.384h6.234V397.856Zm-10.955,13.063c2.842,0,4.675,2.567,4.675,6.509,0,3.758-1.879,6.325-4.675,6.325-2.842,0-4.675-2.521-4.675-6.417S851.52,410.919,854.362,410.919Zm37.859,8.342a17.954,17.954,0,0,0-1.1-7.058,10,10,0,0,0-9.855-6.509c-6.692,0-11.322,4.767-11.322,11.688,0,6.967,4.538,11.643,11.368,11.643,5.271,0,9.4-2.75,10.634-7.059h-6.6a4.149,4.149,0,0,1-3.85,1.971c-2.8,0-4.584-1.65-5-4.676h15.722Zm-15.676-4.583c0.5-2.613,2.154-4.034,4.675-4.034s4.033,1.421,4.308,4.034h-8.983Z" transform="translate(-690.25 -368.281)"/>
    <path class="cls-5" d="M785.723,454.305H945.114v6.028H785.723v-6.028Z" transform="translate(-690.25 -368.281)"/>
    <rect id="Rectangle_3_copy" data-name="Rectangle 3 copy" class="cls-6" x="95.469" y="105.032" width="88.062" height="6.031"/>
  </g>
  <g id="Gradient_ellipse_design" data-name="Gradient ellipse design">
    <circle class="cls-7" cx="335.722" cy="238.859" r="130.409"/>
    <path id="Design" class="cls-4" d="M956.026,619.66h10.58c5.679,0,9.068-1.191,11.725-4.031a16.992,16.992,0,0,0,3.984-11.4,16.309,16.309,0,0,0-3.755-10.9c-2.748-3.115-6-4.214-12.183-4.214H956.026V619.66Zm6.87-5.863V594.974h5.084c2.794,0,4.672.961,5.862,3.068a12.179,12.179,0,0,1,1.466,6.32,12.369,12.369,0,0,1-1.511,6.458c-1.283,2.107-3.161,2.977-6.275,2.977H962.9Zm45.524-3.3a17.916,17.916,0,0,0-1.1-7.053,9.994,9.994,0,0,0-9.848-6.5c-6.687,0-11.313,4.763-11.313,11.679,0,6.961,4.535,11.633,11.359,11.633,5.262,0,9.392-2.748,10.622-7.053h-6.59a4.149,4.149,0,0,1-3.849,1.969c-2.794,0-4.58-1.649-4.992-4.672h15.711Zm-15.665-4.58c0.5-2.61,2.152-4.03,4.671-4.03s4.034,1.42,4.3,4.03h-8.975Zm38.565-1.74c-0.6-4.671-4.03-7.236-9.71-7.236-5.91,0-9.44,2.7-9.44,7.144,0,3.527,1.88,5.313,6.73,6.367l4.03,0.916c1.74,0.412,2.48.961,2.48,2.015,0,1.328-1.33,2.153-3.39,2.153-2.61,0-3.99-.962-4.35-3.069h-6.09c0.36,4.9,4.16,7.786,10.3,7.786s9.94-2.931,9.94-7.6a6.178,6.178,0,0,0-1.65-4.442c-0.96-1.008-2.34-1.6-5.04-2.153l-4.07-.87c-2.06-.458-2.71-0.87-2.71-1.7,0-1.1,1.24-1.832,3.12-1.832,2.15,0,3.48.87,3.75,2.519h6.1Zm11.4-6.641h-6.51V619.66h6.51V597.538Zm0-8.427h-6.51v5.359h6.51v-5.359Zm20.74,8.565,0.14,2.7a7.091,7.091,0,0,0-6.46-3.435c-5.58,0-9.8,4.626-9.8,10.854s4.17,10.672,9.99,10.672a7.768,7.768,0,0,0,5.95-2.382v1.466c0,2.244-.27,3.068-1.24,3.847a4.957,4.957,0,0,1-3.06.87c-2.16,0-3.44-.687-3.9-2.061h-6.73c0.46,4.534,4.17,7.053,10.35,7.053,3.8,0,6.82-1.007,8.84-2.977,1.56-1.511,2.06-3.114,2.06-6.732V597.676h-6.14Zm-5.03,4.534c2.93,0,4.9,2.152,4.9,5.4,0,3.435-1.88,5.588-4.9,5.588-2.94,0-4.9-2.244-4.9-5.5C1053.53,604.408,1055.49,602.21,1058.43,602.21Zm16.89-4.672V619.66h6.51V607.248c0-1.924.23-2.84,0.96-3.664a3.66,3.66,0,0,1,2.79-1.191,3.079,3.079,0,0,1,2.66,1.283c0.55,0.824.69,1.694,0.69,3.938V619.66h6.5V605.324c0-5.221-2.93-8.427-7.74-8.427-2.29,0-3.66.6-6.05,2.794v-2.153h-6.32Z" transform="translate(-690.25 -368.281)"/>
  </g>
  <path id="_" data-name="&amp;" class="cls-4" d="M931.706,522.83c-0.213,3.2-1.067,5.978-2.348,7.544l-5.765-7.615c6.263-4.7,7.971-7.188,7.971-11.529,0-6.547-5.409-11.458-12.668-11.458-6.974,0-12.1,4.7-12.1,11.031,0,3.274,1.566,6.761,4.626,10.39-7.615,4.768-10.461,8.754-10.461,14.518,0,7.686,5.978,13.166,14.233,13.166,4.768,0,8.967-1.5,13.664-4.84l3.06,3.915h11.244l-8.255-10.391a31.992,31.992,0,0,0,5.266-14.731h-8.469Zm-13.023-6.12c-2.349-2.918-3.2-4.412-3.2-5.836,0-1.921,1.565-3.273,3.842-3.273a3.609,3.609,0,0,1,3.915,3.7C923.238,513.294,921.885,514.86,918.683,516.71Zm4.982,20.5q-3.951,3.628-7.686,3.629c-3.487,0-5.978-2.206-5.978-5.337,0-2.918,1.708-4.84,6.618-7.544Z" transform="translate(-690.25 -368.281)"/>
</svg>
